<?xml version="1.0" encoding="UTF-8"?><svg xmlns="http://www.w3.org/2000/svg" height="26.9" viewBox="0 0 103.31 26.9" width="103.31"><g data-name="Layer 2"><g data-name="Layer 1" fill="#e3edc7"><path d="M65.11,23.14c-.18-.41-.56-.77-.15-1.34a4.86,4.86,0,0,0,.7.07c.31,0,.44-.1.79-.39a2.14,2.14,0,0,0-1.5-.83c-.59,0-1.16.42-1.67,1.27A2.29,2.29,0,0,1,61.45,23c0-.33-.06-.63-.11-.93-.17-1-.78-1.55-1.56-1.55a2.79,2.79,0,0,0-1.83.86,8.37,8.37,0,0,0-1.06,1.24,7,7,0,0,1-2.59,2.17,3,3,0,0,1-1.33.37c-.86,0-1.4-.61-1.34-1.73A10.72,10.72,0,0,1,54.26,17h0c.3-.35.6-.69.94-1a2.4,2.4,0,0,1,1.51-.82.88.88,0,0,1,.33.07.54.54,0,0,1,.16.1l.11.09a1.2,1.2,0,0,1,.17.21.25.25,0,0,0,0,.07,2.16,2.16,0,0,1,.15.34,3.08,3.08,0,0,1,.11.39c.1.54.31.68.61.68A3.92,3.92,0,0,0,59,17a2.4,2.4,0,0,0-.78-2.82h0a1.69,1.69,0,0,0-.51-.23l-.05,0a2.36,2.36,0,0,0-.61-.09,3.54,3.54,0,0,0-1.61.45,7.05,7.05,0,0,0-1,.61,5.74,5.74,0,0,0-.49.4,5.51,5.51,0,0,0-.43.41l0,0h0c-2.19,2.26-3.76,6.15-3.34,8.68a2.42,2.42,0,0,0,2.54,2.22,4.59,4.59,0,0,0,1.26-.19c.74-.22,1.39-.71,2.1-.91a2.56,2.56,0,0,0,2,1.14,2.47,2.47,0,0,0,1.94-1.19c1-1.32,2.18-1.44,3.36-1.9.74,1.23.74,1.23.51,2a1.47,1.47,0,0,1-.5-.12.69.69,0,0,0-.41-.16.62.62,0,0,0-.52.36c-.26.39.07.57.28.74a1.7,1.7,0,0,0,1.09.47,1.75,1.75,0,0,0,.91-.29,2.44,2.44,0,0,0,.74-.76,4,4,0,0,1,.2-.76,1.27,1.27,0,0,0,.06-.18,1.72,1.72,0,0,0,.07-.21,1.27,1.27,0,0,0,0-.28A8.09,8.09,0,0,0,65.11,23.14ZM58,25.56a.74.74,0,0,1-.28-.06c-.72-.32-.33-1.11.19-1.82l1.34.71C58.94,24.91,58.56,25.56,58,25.56Zm1.85-2.51c-.58-.18-1.12-.31-.86-1.05.1-.26.33-.52.58-.52a.41.41,0,0,1,.18.05C60.33,21.81,60.19,22.37,59.89,23.05Z"/><path d="M42.34,21.54a2.43,2.43,0,0,0-1.2.37c-.51.3-1,.68-1.55,1.1.15-.87.74-1.56.54-2.27a6.78,6.78,0,0,0-.68,0c-.63,0-.76.26-1.07,1.46a4.66,4.66,0,0,1-2.52,2.9,1.73,1.73,0,0,1-.77.27c-.37,0-.52-.33-.45-1a6.17,6.17,0,0,1,.47-1.89,6.32,6.32,0,0,0,.48-1.69,2,2,0,0,0-.66-.14c-.55,0-.89.36-1,1.16a4.4,4.4,0,0,0-1.71-.37,3.31,3.31,0,0,0-3.33,2.9,2.69,2.69,0,0,1,0,1,1.71,1.71,0,0,0,1.66,1.35,2.59,2.59,0,0,0,1.42-.52c.4-.26.76-.57,1.15-.87.49,1,.85,1.39,1.52,1.39A7,7,0,0,0,37,25.87c.25.53.5.8.79.8s.61-.27,1-.79a16.7,16.7,0,0,1,2.29-2.54c.24-.21.49-.53.84-.53a.75.75,0,0,1,.3.08,2.39,2.39,0,0,1-.25,1.43c-.19.54-.37,1.08-.51,1.62s.23.59.6.67l.15,0a.64.64,0,0,0,.61-.51,12.54,12.54,0,0,0,.84-3C43.68,22.13,43.14,21.54,42.34,21.54ZM31.52,25a1.2,1.2,0,0,1-.74.36.5.5,0,0,1-.28-.08c-.33-.18-.36-.53-.29-.91a2.4,2.4,0,0,1,1.37-1.76,1.43,1.43,0,0,1,.68-.19,1.1,1.1,0,0,1,.94.6A6.62,6.62,0,0,1,31.52,25Z"/><path d="M81.15,20.72a2.66,2.66,0,0,0-.89.16A3.53,3.53,0,0,0,78.1,23a2.79,2.79,0,0,1-2,1.7c-.5-.61.11-1.79-.93-2.1a1.45,1.45,0,0,0-.45-.07c-.79,0-1.39.65-2.06,1.16-.2-1.37-.51-2.12-1.23-2.12a4.91,4.91,0,0,0-2.5,1.38c.06-.73.69-1.42.5-2.13a5.22,5.22,0,0,0-.74-.08c-.42,0-.54.2-.78.82l0,.08,0,0c-.41,1.07-.77,2.15-1.13,3.24,0,.11-.07.22-.1.33a2.77,2.77,0,0,0-.23.91.67.67,0,0,0,.11.38,1.32,1.32,0,0,0,.55.14c.37,0,.68-.23,1-.7a13.53,13.53,0,0,1,2.14-2.64c.21-.2.42-.47.73-.47a.67.67,0,0,1,.28.08c.25.83-.41,1.66-.55,2.5-.06.4-.11.75.31.86a1.76,1.76,0,0,0,.5.09.83.83,0,0,0,.66-.33c.25-.3.5-.61.76-.91.45-.49.8-1.12,1.58-1.22.51.54-.07,1.61.78,1.93a1.34,1.34,0,0,0,.48.08,6.59,6.59,0,0,0,1.88-.62,2.55,2.55,0,0,0,2.09,1.54A3.26,3.26,0,0,0,82,25.32c-.13-.26-.29-.35-.46-.35a1.86,1.86,0,0,0-.8.36,1.56,1.56,0,0,1-.8.3c-.3,0-.56-.16-.79-.6a10.54,10.54,0,0,0,2.48-1.44,3.25,3.25,0,0,0,.67-.89c.06-.33.13-.66.22-1a1.44,1.44,0,0,0-.1-.37A1.38,1.38,0,0,0,81.15,20.72ZM79.4,23.63a2.18,2.18,0,0,1,2-1.85C81.27,23,80.39,23.2,79.4,23.63Z"/><path d="M10.35,17.36h0c0-.33,0-.66,0-1a5.69,5.69,0,0,0-.09-1c-.19-1.07-.65-1.61-1.31-1.61a1.43,1.43,0,0,0-.39.06,2.94,2.94,0,0,0-.43.17h0a4.49,4.49,0,0,0-1,.71h0l0,0a11.7,11.7,0,0,0-1.9,2.44A53.5,53.5,0,0,0,1,26c0,.08,0,.17,0,.35H1.1c.26,0,.49.15.81.15a.86.86,0,0,0,.3,0c.87-1.3,1.1-2.87,2.09-4.2a3.71,3.71,0,0,0,.47,0c.78,0,1.58-.18,2.36-.18a3.71,3.71,0,0,1,.81.08A22,22,0,0,0,7,26.6l.63,0a2.08,2.08,0,0,0,.8-.14,43.61,43.61,0,0,0,1.89-9A.49.49,0,0,1,10.35,17.36Zm-2,3.24-3.45.16c1-1.67,1.52-3.43,3.1-4.79H8a7.58,7.58,0,0,1,.68-.52,5.06,5.06,0,0,1,.14.72.13.13,0,0,1,0,.06,4.86,4.86,0,0,1,0,.66h0C8.81,18.15,8.41,19.36,8.3,20.6Z"/><path d="M24.19,21.82l-.18,0a1.8,1.8,0,0,1-.33-.1.92.92,0,0,0-.76.65A5.87,5.87,0,0,1,20.06,25a2.17,2.17,0,0,1-1,.34c-.62,0-1-.49-.88-1.39a18.27,18.27,0,0,1,1.53-5.45c1.07-.48,2-.11,3-.4.21-.44.42-.82.13-1.19a2.93,2.93,0,0,0-.67-.07c-.3,0-.62,0-.93,0a2.81,2.81,0,0,1-.92-.13c.05-.12.09-.21.13-.32h0l.13-.34.72-1.8a3.89,3.89,0,0,0-.94-.21c-.4,0-.54.27-.92,1a8.12,8.12,0,0,1-.9,1.94l-.88.19h0c-1.12.25-1.13.43-1.07,1.39a.5.5,0,0,0,.31.1c.25,0,.53-.13.78-.13a.44.44,0,0,1,.29.09,2,2,0,0,1-.22,1c-.13.43-.26.86-.4,1.3l0,.23A2.07,2.07,0,0,1,16.77,23a6.45,6.45,0,0,0-.1,1.52,2.08,2.08,0,0,0,2.13,2.13A3.32,3.32,0,0,0,20,26.38c.65-.26,1.28-.63,2-1a4.89,4.89,0,0,0,0,.84c0,.3.3.38.59.39h0a.6.6,0,0,0,.63-.44c.36-1.16.85-2.31,1.13-3.49a2.56,2.56,0,0,1,.11-.92l-.07,0Z"/><path d="M90.53,21.78a.32.32,0,0,0-.09,0l-.33,0c-.38,0-.5.15-.68.58a5.76,5.76,0,0,1-2.59,2.53,2.69,2.69,0,0,1-1.33.49c-.65,0-1-.56-.87-1.62a20.37,20.37,0,0,1,1.09-4.19c.36-1.14.5-1.21,1.74-1.3h.22l.55,0a2.19,2.19,0,0,0,1-.19c.06-.35.36-.73.1-1.11a2.52,2.52,0,0,0-.73-.09l-.88,0a2.33,2.33,0,0,1-.94-.16l1-2.41a3.31,3.31,0,0,0-.94-.23c-.38,0-.54.27-.9,1a7.32,7.32,0,0,0-.37.94.69.69,0,0,0,0,.1l-.15.36a.83.83,0,0,1-.07.13A2.13,2.13,0,0,1,85,17l-.7.17-.39.09-.17,0-.35.1h0c-.53.19-.5.42-.28,1.26a.62.62,0,0,0,.23,0c.26,0,.55-.13.8-.13a.54.54,0,0,1,.25.06c.11.39-.1.69-.19,1-.21.74-.46,1.48-.67,2.23-.1.4-.2.79-.26,1.19a6.42,6.42,0,0,0-.09,1.31,2.14,2.14,0,0,0,2.14,2.32,3.62,3.62,0,0,0,1.45-.34c.57-.26,1.11-.61,1.67-.91.15.26,0,.56,0,.81s.27.4.56.42h.06a.59.59,0,0,0,.63-.41A29.83,29.83,0,0,0,91,21.83l-.27,0Z"/><path d="M98.38,24.1a.61.61,0,0,1,0-.12,3.31,3.31,0,0,1-.14-.41,1.86,1.86,0,0,0-.36-.25,14,14,0,0,1-3.33,1.86,3,3,0,0,1-.86.18.81.81,0,0,1-.58-.2c-.42-.4-.23-1,0-1.52a4.48,4.48,0,0,1,.34-.65c.38-.57.73-.84,1.16-.84a1.78,1.78,0,0,1,.79.23,1.16,1.16,0,0,0,.48.15.67.67,0,0,0,.49-.25,1.57,1.57,0,0,0-1.56-1.46,2.42,2.42,0,0,0-1.35.47,4.39,4.39,0,0,0-2,3.23,1.71,1.71,0,0,0,1.84,2.11h.15a7.29,7.29,0,0,0,4-1.54,1.14,1.14,0,0,1,.15-.19,1.78,1.78,0,0,1,.59-.42A.8.8,0,0,0,98.38,24.1Z"/><path d="M16.15,21.23a4.12,4.12,0,0,0-.48-.05c-1.32,0-2.31,1-3.33,1.88-.08-.82.57-1.5.48-2.34a2.2,2.2,0,0,0-.68-.13.79.79,0,0,0-.81.69,23,23,0,0,0-1.27,5.27,4,4,0,0,0,.66.09,1.1,1.1,0,0,0,.56-.15c.16-.26.3-.52.46-.76,1-1.47,2-2.92,3.93-3.29l.19-.05c.48-.19.49-.68.45-1.14Z"/><path d="M28.14,20.92a1.49,1.49,0,0,0-.83-.27,2.05,2.05,0,0,0-1.24.49,1.9,1.9,0,0,0-.55.67,1.75,1.75,0,0,0-.16,1,2.29,2.29,0,0,0,0,.25c.17.84.85,1.45.84,2.61a2.77,2.77,0,0,1-.77-.15.73.73,0,0,0-.39-.15.63.63,0,0,0-.45.26c-.34.39-.06.58.14.78a1.59,1.59,0,0,0,1.15.52,1.79,1.79,0,0,0,1-.3,2.39,2.39,0,0,0,1-1.32,1.76,1.76,0,0,0,0-.88.08.08,0,0,0,0-.05,7.87,7.87,0,0,0-.53-1.23c-.18-.41-.56-.77-.12-1.31a.41.41,0,0,1,.21-.05c.25,0,.52.2.77.2s.35-.11.5-.47A1.06,1.06,0,0,0,28.14,20.92Z"/><path d="M101.54,21.87c.3,0,.43-.1.77-.41a2.07,2.07,0,0,0-1.44-.79,1.83,1.83,0,0,0-1,.36,1.79,1.79,0,0,0-.77,2,3.84,3.84,0,0,0,.16.52c0,.1.1.2.14.3.12.25.23.49.35.73s.28.53,0,.87a.6.6,0,0,1-.32.1.72.72,0,0,1-.43-.18.48.48,0,0,0-.28-.1l-.06,0a.76.76,0,0,0-.39.24.56.56,0,0,0-.12.18c-.13.26.07.43.24.6a1.61,1.61,0,0,0,1.16.53,1.81,1.81,0,0,0,.94-.29,2.19,2.19,0,0,0,1-2.2,8.4,8.4,0,0,0-.55-1.27c-.18-.41-.56-.77-.13-1.34A5.27,5.27,0,0,0,101.54,21.87Z"/><path d="M24.45,19.35a.86.86,0,0,0-.86.77.52.52,0,0,0,.28.55,1.35,1.35,0,0,0,.37.14.88.88,0,0,0,.23-.07.85.85,0,0,0,.55-.66.55.55,0,0,0-.53-.73Z"/><path d="M90.92,19.35h0c-.42,0-.68.33-.84.76a.63.63,0,0,0,.49.64l.11,0h.13a.81.81,0,0,0,.71-.65C91.62,19.66,91.39,19.35,90.92,19.35Z"/><path d="M52,11.33c.39,1.23.71,2.33,1.05,3.37a8.53,8.53,0,0,1,.74-.63A10,10,0,0,1,55,13.39a4.56,4.56,0,0,1,2.09-.57,3.23,3.23,0,0,1,1.43.33A5.57,5.57,0,0,1,59.62,11c.23,1.31.17,2.57.27,3.74a3.59,3.59,0,0,1,.22,1.24,4.52,4.52,0,0,0,.51,1.23,4.47,4.47,0,0,0,2.85,0c.74-2.7.34-13.44-.62-16.78a4.77,4.77,0,0,0-3.61.12c-1.52,3.12-1.85,6.7-3.59,10.08C53.94,7.06,53.48,3.43,51.84.35A5.29,5.29,0,0,0,48.33.4c-1.4,4.95-.39,10.2-1.23,15.29a1.6,1.6,0,0,0,.63,1.52,4.66,4.66,0,0,0,3-.14C51.48,15.29,50.64,13.2,52,11.33Z"/><path d="M55.9,16.66c-.25.24-.48.49-.7.74a2.42,2.42,0,0,0,1.26-.12,1.82,1.82,0,0,0,.46-.25,3.71,3.71,0,0,1-.13-.46,1.29,1.29,0,0,0-.14-.44A2,2,0,0,0,55.9,16.66Z"/><path d="M3.89,16.79c.59-2.34-.24-4.82.57-7.67.65,1.35,1.08,2.29,1.55,3.21l.72,1.45a3.65,3.65,0,0,1,2.26-1H9c.56,0,1.89.23,2.29,2.43a7.45,7.45,0,0,1,.08,2l.14,0c1.34-.41,1.64-.87,1.66-2.87q0-6.07,0-12.14c0-.6.11-1.24-.37-1.74C11,0,11,0,9.26.62c-.64,2.8.3,5.78-.63,9C6.94,7.14,6.17,4.71,5.08,2.43,3.84-.15,3.21-.41.34.56-.23,4.42,0,15.09.64,17.07A3.12,3.12,0,0,0,3.89,16.79Z"/><path d="M82.19,17.05c.35-.53.93-.67,1.8-.87l.38-.09a4.13,4.13,0,0,0,.25-.63,7.16,7.16,0,0,1,.37-.9,4.8,4.8,0,0,1,.65-1V9.13a7.13,7.13,0,0,1,1.67,2.64c.28.53.53,1.06.79,1.6l.94.32-.35.86c.21.41.43.82.67,1.21l.13.18.09,0,.34.1.2.29a1.5,1.5,0,0,1,.24.54,2.86,2.86,0,0,0,2.63.29c1.38-.39,1.7-.86,1.71-2.82,0-4.14,0-8.28,0-12.42A2,2,0,0,0,94.24.3a3.83,3.83,0,0,0-3.41.21c-.6,2.9.22,5.87-.49,8.77C89.3,9,89.23,8.15,89,7.55c-.84-1.74-1.58-3.54-2.4-5.29-1.12-2.4-1.7-2.6-4.62-1.75C81.37,3.69,81.51,15,82.15,17Z"/><path d="M17.88,16.09a3.63,3.63,0,0,0,.25-.62,6.59,6.59,0,0,1,.35-.87c.41-.79.8-1.54,1.81-1.54a4.24,4.24,0,0,1,1.22.25l1.06.31-.41,1,0,.1.34,0c.53,0,1.06,0,1.77,0a15.21,15.21,0,0,0,.92,1.82,2.86,2.86,0,0,0,3.12.67c1.08-.46,1-1.4.79-2.25-1.1-4.33-2.12-8.69-3.65-12.9C24.78.32,24.09,0,22.42.16a2.32,2.32,0,0,0-2.15,2c-1.18,4.31-2.4,8.61-3.58,12.93a2,2,0,0,0,0,1.32A7.58,7.58,0,0,1,17.88,16.09ZM22.5,7.72c1.34.9,1,2.09,1.1,3.09-.46.61-1,.54-1.61.23C21.72,10,22.21,8.94,22.5,7.72Z"/><path d="M40.37,2.17C39.69.29,38.7-.19,36.93.22c-1.27.29-1.57,1.28-1.86,2.31-1.13,4.05-2.28,8.1-3.39,12.16a2.34,2.34,0,0,0,.11,2c2.56,1,2.67,1,4.46-1.83a5.73,5.73,0,0,1,3,0A12.21,12.21,0,0,0,40,16.44a2.78,2.78,0,0,0,3.08.83c1.24-.47,1.11-1.52.87-2.45C42.85,10.58,41.87,6.3,40.37,2.17Zm-2,9a1.26,1.26,0,0,1-1.54-.3,13.79,13.79,0,0,1,.5-2.95C38.46,9,38.46,9,38.36,11.14Z"/><path d="M69.54,17.22c1.27-.29,1-1.84,2-2.37a5.43,5.43,0,0,1,2.8.05c1.51,2.81,2,3,4.66,1.88a1.55,1.55,0,0,0,.24-1.26A107.54,107.54,0,0,0,75.33,1.6a2.72,2.72,0,0,0-4-1,3.32,3.32,0,0,0-1.09,2.05q-1.68,6-3.32,11.91A2.49,2.49,0,0,0,67,16.8,3,3,0,0,0,69.54,17.22Zm3-9.49c1.42.86.95,2.09,1.21,3-.58.86-1.12.53-1.87.36C72.11,9.91,72.31,8.92,72.54,7.73Z"/><path d="M99.13,7.21c0,3.19-.12,6.48.2,10.12,1.52-.1,2.66.4,3.89-.63.08-3.14.11-6.42,0-9.62C101,6.56,101,6.56,99.13,7.21Z"/><path d="M101.26,4.67a2.25,2.25,0,0,0,2-2.28A2.05,2.05,0,0,0,101,.2a2.24,2.24,0,0,0-2.22,2.37A2.32,2.32,0,0,0,101.26,4.67Z"/></g></g></svg>