


<?xml version="1.0" encoding="UTF-8"?><svg xmlns="http://www.w3.org/2000/svg" height="52.48" viewBox="0 0 118.99 52.48" width="118.99"><g data-name="Layer 2"><g data-name="Layer 1"><path d="M33.29,51.64a.8.8,0,0,0,1.1-.29,1.27,1.27,0,0,0,.24-1,.94.94,0,0,0-.14-.19c-.38-.35-1-.51-1-1.17A3.22,3.22,0,0,1,34,46.75a3.6,3.6,0,0,1,1.76-1.48,4,4,0,0,1-.16,1.93,5.64,5.64,0,0,1-.25.64A.87.87,0,0,0,35.83,49a.86.86,0,0,0,1.05-.21A1.07,1.07,0,0,0,37,47.51a.36.36,0,0,0-.07-.1c-.29-.36-.95-.46-.83-1.11a5.56,5.56,0,0,1,.71-2.16,5.42,5.42,0,0,1,1.56-1.3c.12-.08.3,0,.49.18a7.78,7.78,0,0,1-.15,2.18,3.57,3.57,0,0,0-.11.55c0,.39.08.79.53.91a.74.74,0,0,0,.88-.36.75.75,0,0,0-.13-1.12,1.35,1.35,0,0,1-.7-1.41c.15-1.68.47-2.13,2.26-2.79a2.37,2.37,0,0,1,.2,1.61,1.83,1.83,0,0,1-.11.33c-.22.75-.13,1.19.29,1.25.61.1.9-.26,1-.81a1.27,1.27,0,0,0-.18-.31,1.45,1.45,0,0,1-.62-1.47,2.21,2.21,0,0,1,1.12-1.75A26.43,26.43,0,0,1,45.7,38.7a15.87,15.87,0,0,0,2.22-.9.57.57,0,0,1,.71.08c.12.58-.31.86-.77,1-2.17.8-2.9,2.54-3,4.65a5.9,5.9,0,0,0,.52,2.89,2.48,2.48,0,0,0,1.29,1.39,2.37,2.37,0,0,0,1-1.33,11,11,0,0,0,1.17-6.42A2.55,2.55,0,0,1,51,37c.81-.2,1.63-.37,2.45-.55.37-.07.75-.19,1.07.08a.55.55,0,0,1-.16.74,6.86,6.86,0,0,1-1.36,1A4.51,4.51,0,0,0,51.1,43c.19.62.32,1.26.49,1.89A1.54,1.54,0,0,0,52.46,46a4.36,4.36,0,0,0,1.59-1.92,7.35,7.35,0,0,0,.75-5.3c-.32-1.17-.23-1.41.93-2.12l1.38-.27c-.34-.14-3-1.75-3-2.11a6.91,6.91,0,0,0-2.66-3.88c-1.23-1.08-2.61-2-3.92-3-.39.16-.42.55-.47.85-.77,4.07,1.57,6.77,5.27,7.12a3.52,3.52,0,0,0,1-.14,1,1,0,0,1,1.1.33c-.12.36-.43.33-.67.39-1.11.25-2.23.52-3.35.72-1.35.25-2.55.15-3.37-1.24a5.59,5.59,0,0,0-2.32-2,20.74,20.74,0,0,0-4.8-1.76,4,4,0,0,0,.52,2.82A5,5,0,0,0,45.83,37a2.67,2.67,0,0,1,2.05.09A5.47,5.47,0,0,1,46,38.16a18.21,18.21,0,0,0-2.7,1.23,3.74,3.74,0,0,1-2.88.11.8.8,0,0,1-.58-.51,2.26,2.26,0,0,0-.19-.42.65.65,0,0,0-.78-.32.52.52,0,0,0-.39.62c0,.33.18.61.55.61a5,5,0,0,1,2,.71,3.31,3.31,0,0,1-4.14,1.28,1.16,1.16,0,0,1-.59-.64c-.29-.59-.31-.58-1.13-.74a1,1,0,0,0-.48.47.89.89,0,0,0,0,1.07.78.78,0,0,0,1,.3,2.6,2.6,0,0,1,2.29.33,2.23,2.23,0,0,1-1.6,1.23,11.34,11.34,0,0,1-1.55.39c-.78.18-1.54.38-2.21-.37A1,1,0,1,0,32,45.28.9.9,0,0,0,32.7,45c.74-.81,1.7-.57,2.86-.71a6.47,6.47,0,0,1-2.35,2.54,4.43,4.43,0,0,1-.62.3c-.7.33-1.37.5-2-.19a.78.78,0,0,0-1-.13,1.09,1.09,0,0,0-.46,1.38,1,1,0,0,0,1.3.34,4,4,0,0,0,.55-.4,1,1,0,0,1,1.35,0c-.65.76-1.06,1.67-2,2.19a1.22,1.22,0,0,0-.66,1.42.9.9,0,0,0,.85.79.89.89,0,0,0,.88-.61,1.93,1.93,0,0,0,.12-.67c0-.4-.39-.75-.12-1.21a9.87,9.87,0,0,1,1.44-1.75,1.6,1.6,0,0,1,.27,1.85,3.06,3.06,0,0,0-.27.5A.78.78,0,0,0,33.29,51.64Zm2.27-10.13a.43.43,0,0,1-.6-.32.4.4,0,0,1,.29-.52.49.49,0,0,1,.67.23A.51.51,0,0,1,35.56,41.51Zm7-5.43a3.63,3.63,0,0,1-2.11-2.61,10,10,0,0,1,2.64,1.63c.8.47,1.83.51,2.56,1.43C44.45,37.08,43.49,36.48,42.58,36.08Zm9.83-1.2A4.68,4.68,0,0,1,48,32.53a3.9,3.9,0,0,1-.5-3.57c.21.12.36.15.4.23a11.81,11.81,0,0,0,4.37,5.12A.39.39,0,0,1,52.41,34.88Zm.48,4.21c.25.15.2.4.12.6a18.22,18.22,0,0,0-.7,4c0,.24.11.54-.2.7C50.7,43.28,51.16,40.15,52.89,39.09Zm-22.8,9.1c-.3.06-.55,0-.64-.29a.57.57,0,0,1,.4-.71.44.44,0,0,1,.66.22C30.66,47.81,30.41,48,30.09,48.19Zm3.65,3.09c-.23,0-.45-.12-.45-.38a.59.59,0,0,1,.52-.64.4.4,0,0,1,.48.37C34.32,51,34.07,51.16,33.74,51.28Z" fill="#684d9a"/><path d="M85.28,50.59c-.06-.17-.19-.33-.27-.5a1.6,1.6,0,0,1,.26-1.85A10,10,0,0,1,86.72,50c.27.46-.12.81-.12,1.21a1.92,1.92,0,0,0,.11.67.89.89,0,0,0,.88.61.9.9,0,0,0,.86-.79,1.22,1.22,0,0,0-.67-1.42c-.9-.52-1.3-1.43-2-2.19a1,1,0,0,1,1.35,0,4,4,0,0,0,.55.4,1,1,0,0,0,1.3-.34,1.09,1.09,0,0,0-.46-1.38.8.8,0,0,0-1,.13c-.61.69-1.28.52-2,.19a4,4,0,0,1-.62-.3,6.4,6.4,0,0,1-2.35-2.54c1.15.14,2.11-.1,2.85.71a1,1,0,1,0,1.36-1.41.91.91,0,0,0-1.26-.05c-.68.75-1.43.55-2.22.37a11.72,11.72,0,0,1-1.55-.39,2.21,2.21,0,0,1-1.59-1.23,2.58,2.58,0,0,1,2.28-.33.8.8,0,0,0,1-.3.9.9,0,0,0,0-1.07,1,1,0,0,0-.48-.47c-.81.16-.83.15-1.12.74a1.16,1.16,0,0,1-.59.64,3.31,3.31,0,0,1-4.14-1.28,4.94,4.94,0,0,1,2-.71c.37,0,.52-.28.55-.61a.51.51,0,0,0-.38-.62.67.67,0,0,0-.79.32,3.12,3.12,0,0,0-.18.42.84.84,0,0,1-.58.51,3.76,3.76,0,0,1-2.89-.11,17.65,17.65,0,0,0-2.69-1.23,5.59,5.59,0,0,1-1.92-1.07A2.69,2.69,0,0,1,72.31,37a5,5,0,0,0,5.43-2.47,4,4,0,0,0,.51-2.82,20.83,20.83,0,0,0-4.79,1.76,5.62,5.62,0,0,0-2.33,2c-.82,1.39-2,1.49-3.36,1.24-1.13-.2-2.24-.47-3.36-.72-.24-.06-.54,0-.67-.39a1,1,0,0,1,1.1-.33,3.57,3.57,0,0,0,1,.14c3.71-.35,6-3,5.28-7.12-.06-.3-.09-.69-.47-.85-1.32,1-2.69,1.89-3.93,3a7,7,0,0,0-2.66,3.88c-.07.36-2.7,2-3,2.11l1.38.27c1.16.71,1.25,1,.94,2.12a7.35,7.35,0,0,0,.75,5.3A4.34,4.34,0,0,0,65.67,46a1.51,1.51,0,0,0,.87-1.13c.17-.63.3-1.27.49-1.89a4.5,4.5,0,0,0-1.88-4.68,6.92,6.92,0,0,1-1.37-1,.55.55,0,0,1-.15-.74c.31-.27.69-.15,1.06-.08.82.18,1.64.35,2.46.55a2.56,2.56,0,0,1,2.15,3.1,10.89,10.89,0,0,0,1.16,6.42,2.39,2.39,0,0,0,1,1.33,2.43,2.43,0,0,0,1.28-1.39,5.8,5.8,0,0,0,.53-2.89c-.14-2.11-.86-3.85-3-4.65-.45-.17-.89-.45-.76-1a.56.56,0,0,1,.7-.08,16.37,16.37,0,0,0,2.22.9,25.33,25.33,0,0,1,2.49,1.13A2.18,2.18,0,0,1,76,41.58a1.43,1.43,0,0,1-.62,1.47,1,1,0,0,0-.17.31c.12.55.42.91,1,.81.42-.06.51-.5.29-1.25a3.19,3.19,0,0,1-.11-.33A2.37,2.37,0,0,1,76.66,41c1.79.66,2.1,1.11,2.26,2.79a1.34,1.34,0,0,1-.71,1.41A.86.86,0,0,0,79,46.66c.44-.12.52-.52.53-.91a3.61,3.61,0,0,0-.12-.55A7.77,7.77,0,0,1,79.24,43c.19-.18.36-.26.48-.18a5.29,5.29,0,0,1,1.56,1.3A5.75,5.75,0,0,1,82,46.3c.11.65-.55.75-.84,1.11a.33.33,0,0,0-.06.1,1.05,1.05,0,0,0,.16,1.27.84.84,0,0,0,1,.21.86.86,0,0,0,.46-1.15c-.07-.22-.19-.42-.24-.64a3.77,3.77,0,0,1-.16-1.93,3.62,3.62,0,0,1,1.75,1.48A3.12,3.12,0,0,1,84.63,49c0,.66-.6.82-1,1.17a1.56,1.56,0,0,0-.13.19,1.27,1.27,0,0,0,.23,1,.81.81,0,0,0,1.11.29A.8.8,0,0,0,85.28,50.59ZM82.22,40.9a.48.48,0,0,1,.66-.23.41.41,0,0,1,.3.52.44.44,0,0,1-.61.32A.5.5,0,0,1,82.22,40.9Zm-9.76-4.37c.73-.92,1.77-1,2.56-1.43a10.29,10.29,0,0,1,2.65-1.63,3.64,3.64,0,0,1-2.12,2.61C74.64,36.48,73.69,37.08,72.46,36.53Zm-6.55-2.22a11.88,11.88,0,0,0,4.37-5.12c0-.08.18-.11.39-.23a3.9,3.9,0,0,1-.5,3.57,4.66,4.66,0,0,1-4.44,2.35A.38.38,0,0,1,65.91,34.31ZM66,44.4c-.32-.16-.17-.46-.21-.7a18.81,18.81,0,0,0-.69-4c-.09-.2-.14-.45.11-.6C67,40.15,67.44,43.28,66,44.4Zm21.6,3a.43.43,0,0,1,.65-.22.58.58,0,0,1,.41.71c-.09.32-.34.35-.64.29S87.48,47.81,87.63,47.41Zm-3.78,3.22a.4.4,0,0,1,.48-.37.6.6,0,0,1,.52.64c0,.26-.22.37-.46.38S83.81,51,83.85,50.63Z" fill="#684d9a"/><path d="M75,26.65c-.21-.47-.64-.89-.17-1.54a6.88,6.88,0,0,0,.81.08c.36,0,.5-.11.9-.45a2.44,2.44,0,0,0-1.72-.95c-.69,0-1.34.48-1.93,1.46a2.65,2.65,0,0,1-2.11,1.22c0-.38-.07-.73-.12-1.07-.2-1.17-.91-1.79-1.8-1.79a3.22,3.22,0,0,0-2.1,1A9.29,9.29,0,0,0,65.52,26a7.91,7.91,0,0,1-3,2.5A3.47,3.47,0,0,1,61,29c-1,0-1.61-.7-1.55-2a12.37,12.37,0,0,1,3-7.44h0a14.67,14.67,0,0,1,1.08-1.17,2.72,2.72,0,0,1,1.74-.95,1,1,0,0,1,.38.08,1,1,0,0,1,.17.12l.13.1a1.29,1.29,0,0,1,.2.25.25.25,0,0,1,0,.07,2.1,2.1,0,0,1,.18.4,4.07,4.07,0,0,1,.13.45c.11.62.36.78.71.78a3.26,3.26,0,0,0,.69-.11c.41-1.58,0-2.69-.89-3.24h0a2.11,2.11,0,0,0-.59-.27l-.06,0a2.63,2.63,0,0,0-.7-.1,4,4,0,0,0-1.86.51,10.72,10.72,0,0,0-1.17.71c-.19.14-.38.29-.57.46s-.33.3-.49.47a.12.12,0,0,0,0,.05h0c-2.54,2.6-4.34,7.08-3.86,10a2.79,2.79,0,0,0,2.92,2.56,5.28,5.28,0,0,0,1.46-.22c.85-.25,1.6-.81,2.42-1a3,3,0,0,0,2.25,1.31A2.84,2.84,0,0,0,69,29.35c1.13-1.52,2.51-1.67,3.87-2.2.85,1.42.85,1.42.59,2.35a1.9,1.9,0,0,1-.58-.14.77.77,0,0,0-.47-.19.76.76,0,0,0-.61.41c-.29.46.09.66.34.86a1.92,1.92,0,0,0,1.25.54,2,2,0,0,0,1.05-.34,2.72,2.72,0,0,0,.85-.87,4,4,0,0,1,.23-.87,1.72,1.72,0,0,0,.07-.21,2.25,2.25,0,0,0,.08-.24,1.24,1.24,0,0,0,0-.33A9,9,0,0,0,75,26.65Zm-8.14,2.79a.85.85,0,0,1-.33-.07c-.82-.37-.38-1.28.22-2.1l1.55.82C67.88,28.69,67.44,29.44,66.85,29.44ZM69,26.55c-.67-.21-1.29-.36-1-1.21.11-.3.38-.6.67-.6a.49.49,0,0,1,.2.05C69.49,25.12,69.32,25.76,69,26.55Z" fill="#e3edc7"/><path d="M48.77,24.81a2.74,2.74,0,0,0-1.39.43c-.58.34-1.11.78-1.78,1.26.17-1,.85-1.79.62-2.61a6.56,6.56,0,0,0-.78-.06c-.73,0-.88.3-1.23,1.69a5.38,5.38,0,0,1-2.91,3.33,1.92,1.92,0,0,1-.89.31c-.42,0-.59-.37-.52-1.12a7.63,7.63,0,0,1,.54-2.19A6.47,6.47,0,0,0,41,23.91a2.35,2.35,0,0,0-.76-.16c-.63,0-1,.42-1.2,1.33a5,5,0,0,0-2-.42A3.8,3.8,0,0,0,33.23,28a3.24,3.24,0,0,1,0,1.12,1.82,1.82,0,0,0,1,1.32,1.83,1.83,0,0,0,.92.24,3.08,3.08,0,0,0,1.65-.59c.45-.3.87-.67,1.32-1,.57,1.1,1,1.61,1.75,1.61a8.07,8.07,0,0,0,2.74-.9c.29.61.58.92.91.92s.7-.3,1.15-.9a18.31,18.31,0,0,1,2.64-2.93c.28-.24.56-.6,1-.6a.8.8,0,0,1,.35.08A2.81,2.81,0,0,1,48.31,28c-.22.62-.43,1.24-.59,1.87s.27.68.68.77l.18,0a.74.74,0,0,0,.71-.59,14.83,14.83,0,0,0,1-3.42C50.3,25.49,49.68,24.81,48.77,24.81ZM36.3,28.75a1.42,1.42,0,0,1-.84.41.67.67,0,0,1-.33-.08c-.38-.21-.42-.62-.34-1.06a2.81,2.81,0,0,1,1.58-2,1.76,1.76,0,0,1,.78-.21,1.27,1.27,0,0,1,1.09.68A7.59,7.59,0,0,1,36.3,28.75Z" fill="#e3edc7"/><path d="M93.46,23.86a3,3,0,0,0-1,.19A4.06,4.06,0,0,0,90,26.45a3.24,3.24,0,0,1-2.36,2c-.58-.71.13-2.07-1.07-2.43a1.89,1.89,0,0,0-.51-.07c-.92,0-1.61.74-2.38,1.33-.23-1.58-.59-2.44-1.42-2.44-.63,0-1.54.51-2.88,1.58.07-.84.8-1.62.58-2.45a6.85,6.85,0,0,0-.85-.08c-.49,0-.62.22-.9.94a.25.25,0,0,0,0,.09l0,.05c-.47,1.24-.89,2.49-1.3,3.74l-.12.38a3.3,3.3,0,0,0-.26,1.05.76.76,0,0,0,.12.43,1.47,1.47,0,0,0,.63.16c.43,0,.79-.26,1.12-.81a16.28,16.28,0,0,1,2.47-3c.24-.23.49-.53.84-.53a.75.75,0,0,1,.33.09c.28,1-.48,1.91-.64,2.88-.07.46-.13.86.36,1a2.28,2.28,0,0,0,.57.1A.94.94,0,0,0,83,30c.3-.34.58-.7.88-1,.52-.57.92-1.3,1.82-1.41.58.62-.09,1.86.9,2.22a1.7,1.7,0,0,0,.54.09,7.46,7.46,0,0,0,2.17-.71,3,3,0,0,0,2.42,1.78,3.75,3.75,0,0,0,2.73-1.75c-.15-.31-.33-.41-.53-.41a2.08,2.08,0,0,0-.92.42,1.83,1.83,0,0,1-.92.34c-.34,0-.65-.19-.91-.69A12,12,0,0,0,94,27.17a3.55,3.55,0,0,0,.78-1c.07-.38.15-.76.25-1.13a1.2,1.2,0,0,0-.12-.42A1.59,1.59,0,0,0,93.46,23.86Zm-2,3.36a2.51,2.51,0,0,1,2.3-2.14C93.6,26.44,92.59,26.72,91.45,27.22Z" fill="#e3edc7"/><path d="M11.92,20h0c0-.39.05-.77.05-1.15a7.73,7.73,0,0,0-.11-1.18c-.22-1.22-.75-1.85-1.5-1.85a1.9,1.9,0,0,0-.46.07,3.17,3.17,0,0,0-.49.2h0a5.49,5.49,0,0,0-1.13.81h0l0,0A13.57,13.57,0,0,0,6,19.77,60.88,60.88,0,0,0,1.16,30c0,.08,0,.19,0,.39h.07c.3,0,.57.17.92.17a1,1,0,0,0,.36-.06c1-1.5,1.27-3.3,2.4-4.83a4.87,4.87,0,0,0,.54,0c.9,0,1.82-.2,2.72-.2a4.19,4.19,0,0,1,.93.09C8.77,27.3,8.08,29,8.09,30.64c.25,0,.48,0,.72,0a2.58,2.58,0,0,0,.92-.17,50.44,50.44,0,0,0,2.18-10.38A.57.57,0,0,1,11.92,20ZM9.56,23.72l-4,.19C6.71,22,7.34,20,9.16,18.39h0a8.36,8.36,0,0,1,.78-.59,4.86,4.86,0,0,1,.16.83.15.15,0,0,1,0,.07,6.28,6.28,0,0,1,0,.75h0C10.14,20.91,9.68,22.29,9.56,23.72Z" fill="#e3edc7"/><path d="M27.86,25.14l-.2-.05a3.59,3.59,0,0,1-.39-.12,1,1,0,0,0-.87.75,6.77,6.77,0,0,1-3.3,3.06,2.42,2.42,0,0,1-1.2.39c-.71,0-1.09-.56-1-1.6a21.37,21.37,0,0,1,1.77-6.28c1.23-.54,2.32-.12,3.42-.46.24-.5.48-.94.15-1.37a3.3,3.3,0,0,0-.77-.07c-.36,0-.72,0-1.08,0a2.85,2.85,0,0,1-1.05-.16l.14-.36h0l.15-.39c.29-.72.57-1.41.83-2.08a5,5,0,0,0-1.09-.24c-.45,0-.62.31-1.05,1.15a9.57,9.57,0,0,1-1,2.23l-1,.21h0c-1.29.3-1.3.5-1.23,1.61a.54.54,0,0,0,.35.11c.29,0,.62-.15.9-.15a.53.53,0,0,1,.34.11,2.43,2.43,0,0,1-.26,1.15c-.14.5-.3,1-.45,1.49l0,.27a2.36,2.36,0,0,1-.62,2.09,7.39,7.39,0,0,0-.11,1.75,2.4,2.4,0,0,0,2.45,2.47,3.9,3.9,0,0,0,1.4-.29c.76-.3,1.48-.73,2.27-1.13a8.06,8.06,0,0,0,0,1c0,.35.35.44.68.45h0a.69.69,0,0,0,.73-.5c.41-1.34,1-2.67,1.29-4a3.39,3.39,0,0,1,.13-1.06l-.09,0Z" fill="#e3edc7"/><path d="M104.27,25.08a.45.45,0,0,1-.11,0l-.37,0c-.45,0-.59.17-.79.66a6.6,6.6,0,0,1-3,2.92,3.1,3.1,0,0,1-1.52.57c-.75,0-1.12-.65-1-1.87a24.74,24.74,0,0,1,1.26-4.83c.41-1.31.57-1.39,2-1.5h.89a2.56,2.56,0,0,0,1.11-.21c.07-.41.41-.85.11-1.28a2.93,2.93,0,0,0-.84-.1c-.33,0-.67,0-1,0a2.82,2.82,0,0,1-1.08-.18c.38-1,.75-1.88,1.11-2.78a3.84,3.84,0,0,0-1.08-.27c-.44,0-.62.31-1,1.11a8.51,8.51,0,0,0-.43,1.09l0,.1a3.79,3.79,0,0,1-.18.42,1,1,0,0,1-.07.15,2.87,2.87,0,0,1-.31.49l-.81.19-.44.1-.21.05L96,20h0c-.61.21-.57.48-.32,1.44a.65.65,0,0,0,.27.05c.3,0,.62-.15.91-.15a.51.51,0,0,1,.29.08c.13.44-.11.78-.21,1.14-.24.86-.54,1.71-.77,2.57a13.68,13.68,0,0,0-.31,1.38,7.57,7.57,0,0,0-.1,1.5,2.46,2.46,0,0,0,2.47,2.67,4.16,4.16,0,0,0,1.66-.39c.66-.3,1.29-.7,1.93-1.05.17.31,0,.64,0,.94s.31.46.65.48h.07a.67.67,0,0,0,.72-.47,33.71,33.71,0,0,0,1.53-5.06l-.31,0Z" fill="#e3edc7"/><path d="M113.31,27.76l-.06-.14a4.34,4.34,0,0,1-.16-.47,1.73,1.73,0,0,0-.41-.29A16.65,16.65,0,0,1,108.84,29a3.19,3.19,0,0,1-1,.21.91.91,0,0,1-.67-.24c-.48-.45-.26-1.12,0-1.75a4.78,4.78,0,0,1,.39-.74c.43-.65.84-1,1.34-1a2,2,0,0,1,.9.26,1.28,1.28,0,0,0,.55.17.76.76,0,0,0,.57-.28,1.82,1.82,0,0,0-1.8-1.68,2.77,2.77,0,0,0-1.55.54,5.06,5.06,0,0,0-2.29,3.73,2,2,0,0,0,2.12,2.42h.17a8.43,8.43,0,0,0,4.57-1.79,2.49,2.49,0,0,1,.17-.21,2.24,2.24,0,0,1,.68-.48A1.11,1.11,0,0,0,113.31,27.76Z" fill="#e3edc7"/><path d="M18.6,24.45a3.55,3.55,0,0,0-.55-.06c-1.53,0-2.66,1.1-3.84,2.17-.09-.95.66-1.73.55-2.7a2.82,2.82,0,0,0-.78-.15.92.92,0,0,0-.93.8,26.21,26.21,0,0,0-1.46,6.07,4.07,4.07,0,0,0,.76.1,1.27,1.27,0,0,0,.65-.17c.18-.3.33-.59.52-.87C14.67,28,15.81,26.28,18,25.85a1,1,0,0,0,.22-.07c.57-.22.58-.77.52-1.3Z" fill="#e3edc7"/><path d="M32.41,24.09a1.67,1.67,0,0,0-1-.3,2.38,2.38,0,0,0-1.43.56,2,2,0,0,0-.62.77,2,2,0,0,0-.19,1.11c0,.09,0,.18,0,.28.2,1,1,1.67,1,3a2.7,2.7,0,0,1-.89-.17.85.85,0,0,0-.44-.16.72.72,0,0,0-.53.29c-.39.45-.06.67.16.9a1.87,1.87,0,0,0,1.33.6,2,2,0,0,0,1.09-.35A2.69,2.69,0,0,0,32,29.11a2,2,0,0,0,0-1s0,0,0-.06a10.4,10.4,0,0,0-.62-1.41c-.21-.47-.64-.89-.13-1.51a.39.39,0,0,1,.23-.07c.3,0,.6.24.89.24s.4-.12.58-.54A1.2,1.2,0,0,0,32.41,24.09Z" fill="#e3edc7"/><path d="M117,25.19c.35,0,.49-.12.89-.47a2.4,2.4,0,0,0-1.66-.91,2.13,2.13,0,0,0-1.17.41,2.07,2.07,0,0,0-.88,2.36,3,3,0,0,0,.19.6,2.72,2.72,0,0,0,.16.35l.39.84c.16.31.32.6,0,1a.64.64,0,0,1-.37.12.85.85,0,0,1-.5-.2.51.51,0,0,0-.31-.11l-.07,0a.8.8,0,0,0-.45.27,1.05,1.05,0,0,0-.15.21c-.15.3.09.49.28.69a1.85,1.85,0,0,0,1.34.61,2.08,2.08,0,0,0,1.08-.33,2.54,2.54,0,0,0,1.18-2.53,8.72,8.72,0,0,0-.64-1.47c-.21-.47-.64-.89-.15-1.54A5.69,5.69,0,0,0,117,25.19Z" fill="#e3edc7"/><path d="M28.16,22.29a1,1,0,0,0-1,.88.58.58,0,0,0,.33.63,1.6,1.6,0,0,0,.42.17l.27-.08a1,1,0,0,0,.63-.76.63.63,0,0,0-.61-.84Z" fill="#e3edc7"/><path d="M104.72,22.28h0c-.47,0-.78.39-1,.88a.74.74,0,0,0,.57.74l.13,0h.15a.9.9,0,0,0,.81-.75C105.52,22.65,105.26,22.28,104.72,22.28Z" fill="#e3edc7"/><path d="M59.94,13.05c.45,1.42.81,2.68,1.21,3.88a9.28,9.28,0,0,1,.85-.72,10.28,10.28,0,0,1,1.3-.79,5.19,5.19,0,0,1,2.41-.65,3.69,3.69,0,0,1,1.64.37,6.6,6.6,0,0,1,1.32-2.52c.26,1.52.19,3,.31,4.31a4.13,4.13,0,0,1,.25,1.43,5.09,5.09,0,0,0,.59,1.41,5.1,5.1,0,0,0,3.28,0C74,16.62,73.49,4.25,72.38.4a5.49,5.49,0,0,0-4.15.14C66.48,4.13,66.1,8.25,64.1,12.15c-2-4-2.51-8.2-4.39-11.74a6.06,6.06,0,0,0-4.05.05c-1.6,5.7-.45,11.75-1.41,17.61A1.84,1.84,0,0,0,55,19.82a5.29,5.29,0,0,0,3.41-.16C59.29,17.62,58.32,15.21,59.94,13.05Z" fill="#684d9a"/><path d="M64.38,19.18c-.28.28-.55.57-.81.86A2.87,2.87,0,0,0,65,19.9a1.9,1.9,0,0,0,.53-.28,3.49,3.49,0,0,1-.15-.54,1.41,1.41,0,0,0-.16-.5A2.27,2.27,0,0,0,64.38,19.18Z" fill="#684d9a"/><path d="M4.48,19.33c.68-2.69-.28-5.55.66-8.82.75,1.55,1.25,2.63,1.78,3.69.28.55.55,1.11.83,1.67a4.23,4.23,0,0,1,2.61-1.2h0c.64,0,2.18.27,2.64,2.8a9.41,9.41,0,0,1,.09,2.34l.16,0c1.54-.48,1.89-1,1.9-3.31,0-4.66,0-9.32,0-14a2.61,2.61,0,0,0-.42-2C12.62,0,12.62,0,10.67.71,9.93,3.94,11,7.37,9.94,11.1,8,8.22,7.1,5.42,5.85,2.8,4.42-.18,3.7-.48.39.65c-.66,4.44-.45,16.73.35,19A3.57,3.57,0,0,0,4.48,19.33Z" fill="#684d9a"/><path d="M94.66,19.63c.41-.6,1.08-.77,2.08-1l.43-.11a5.78,5.78,0,0,0,.3-.73,7.46,7.46,0,0,1,.42-1,5,5,0,0,1,.75-1.17V10.52a8.07,8.07,0,0,1,1.92,3c.32.6.61,1.22.91,1.84l1.08.36-.4,1c.25.47.5.94.78,1.39a1.53,1.53,0,0,0,.14.21l.1,0,.4.12.23.34a1.64,1.64,0,0,1,.27.61,3.31,3.31,0,0,0,3,.34c1.59-.46,2-1,2-3.26,0-4.76,0-9.53,0-14.29a2.28,2.28,0,0,0-.54-1.89,4.43,4.43,0,0,0-3.93.23c-.68,3.34.26,6.77-.56,10.11-1.2-.38-1.28-1.31-1.61-2-1-2-1.81-4.08-2.75-6.1-1.3-2.76-2-3-5.33-2-.64,3.68-.49,16.7.25,19Z" fill="#684d9a"/><path d="M20.6,18.53a4.38,4.38,0,0,0,.28-.71,8,8,0,0,1,.41-1c.47-.91.91-1.77,2.07-1.77a5.09,5.09,0,0,1,1.42.29l1.21.35-.47,1.18,0,.12.39,0c.61,0,1.22,0,2,0A17.6,17.6,0,0,0,29,19.05a3.33,3.33,0,0,0,3.61.78c1.24-.54,1.15-1.62.9-2.6-1.27-5-2.45-10-4.21-14.86C28.54.37,27.75,0,25.82.18a2.68,2.68,0,0,0-2.47,2.29c-1.37,5-2.77,9.92-4.13,14.88a2.36,2.36,0,0,0,0,1.53A9.32,9.32,0,0,1,20.6,18.53ZM25.91,8.9c1.55,1,1.16,2.4,1.27,3.55-.53.7-1.09.62-1.85.26C25,11.47,25.58,10.3,25.91,8.9Z" fill="#684d9a"/><path d="M46.5,2.5c-.79-2.17-1.93-2.71-4-2.25-1.47.33-1.81,1.48-2.14,2.67q-2,7-3.91,14a2.69,2.69,0,0,0,.12,2.33c3,1.2,3.08,1.15,5.14-2.1a6.73,6.73,0,0,1,3.48,0,13.37,13.37,0,0,0,.85,1.77,3.2,3.2,0,0,0,3.55.95c1.42-.54,1.28-1.75,1-2.82C49.36,12.18,48.22,7.25,46.5,2.5ZM44.18,12.83a1.49,1.49,0,0,1-1.78-.34c-.11-1.05.41-2.15.58-3.41C44.29,10.33,44.29,10.33,44.18,12.83Z" fill="#684d9a"/><path d="M80.09,19.83c1.46-.33,1.1-2.12,2.28-2.73a6.43,6.43,0,0,1,3.23.06c1.74,3.24,2.27,3.45,5.36,2.16a1.76,1.76,0,0,0,.28-1.45,123.72,123.72,0,0,0-4.48-16C86.12.09,83.62-.43,82.13.64A3.84,3.84,0,0,0,80.88,3c-1.29,4.56-2.57,9.14-3.83,13.71a2.88,2.88,0,0,0,.14,2.63A3.39,3.39,0,0,0,80.09,19.83ZM83.55,8.91c1.64,1,1.1,2.4,1.39,3.41-.66,1-1.29.61-2.16.41C83.05,11.42,83.28,10.27,83.55,8.91Z" fill="#684d9a"/><path d="M114.17,8.3c0,3.68-.13,7.46.24,11.66,1.74-.12,3.06.46,4.47-.72.1-3.62.13-7.4,0-11.09C116.37,7.56,116.37,7.56,114.17,8.3Z" fill="#684d9a"/><path d="M116.63,5.38A2.59,2.59,0,0,0,119,2.75,2.36,2.36,0,0,0,116.29.23,2.57,2.57,0,0,0,113.74,3,2.66,2.66,0,0,0,116.63,5.38Z" fill="#684d9a"/></g></g></svg>